<?xml version="1.0" standalone="no"?><!DOCTYPE svg PUBLIC "-//W3C//DTD SVG 1.1//EN" "http://www.w3.org/Graphics/SVG/1.1/DTD/svg11.dtd"><svg t="1665152562741" class="icon" viewBox="0 0 1024 1024" version="1.1" xmlns="http://www.w3.org/2000/svg" p-id="3283" xmlns:xlink="http://www.w3.org/1999/xlink" width="200" height="200"><path d="M508.5 521.2m-300 0a300 300 0 1 0 600 0 300 300 0 1 0-600 0Z" fill="#FFC41D" p-id="3284"></path><path d="M508.5 826.2c-81.5 0-158.1-31.7-215.7-89.3s-89.3-134.2-89.3-215.7 31.7-158.1 89.3-215.7 134.2-89.3 215.7-89.3 158.1 31.7 215.7 89.3 89.3 134.2 89.3 215.7-31.7 158.1-89.3 215.7-134.2 89.3-215.7 89.3z m0-600c-162.7 0-295 132.3-295 295s132.3 295 295 295 295-132.3 295-295-132.3-295-295-295z" fill="" p-id="3285"></path><path d="M357.5 521.2m-55 0a55 55 0 1 0 110 0 55 55 0 1 0-110 0Z" fill="" p-id="3286"></path><path d="M357.5 577.7c-31.2 0-56.5-25.3-56.5-56.5s25.3-56.5 56.5-56.5S414 490 414 521.2s-25.3 56.5-56.5 56.5z m0-110c-29.5 0-53.5 24-53.5 53.5s24 53.5 53.5 53.5 53.5-24 53.5-53.5-24-53.5-53.5-53.5z" fill="" p-id="3287"></path><path d="M333.7 505.9m-15.2 0a15.2 15.2 0 1 0 30.4 0 15.2 15.2 0 1 0-30.4 0Z" fill="#FFFFFF" p-id="3288"></path><path d="M396.6 538.7c2.4 4.2-1.2 14.8-13.9 22.3-12.7 7.5-26.4 6.4-28.9 2.3s9.7-1.6 22.5-9c12.8-7.6 17.9-19.8 20.3-15.6z" fill="#565656" p-id="3289"></path><path d="M659.3 521.2m-55 0a55 55 0 1 0 110 0 55 55 0 1 0-110 0Z" fill="" p-id="3290"></path><path d="M659.3 577.7c-31.2 0-56.5-25.3-56.5-56.5s25.3-56.5 56.5-56.5 56.5 25.3 56.5 56.5-25.4 56.5-56.5 56.5z m0-110c-29.5 0-53.5 24-53.5 53.5s24 53.5 53.5 53.5 53.5-24 53.5-53.5-24-53.5-53.5-53.5z" fill="" p-id="3291"></path><path d="M635.5 505.9m-15.2 0a15.2 15.2 0 1 0 30.4 0 15.2 15.2 0 1 0-30.4 0Z" fill="#FFFFFF" p-id="3292"></path><path d="M698.4 538.7c2.4 4.2-1.2 14.8-13.9 22.3-12.7 7.5-26.4 6.4-28.9 2.3s9.7-1.6 22.5-9 17.9-19.8 20.3-15.6z" fill="#565656" p-id="3293"></path><path d="M507.1 600.7s-127 6.9-123.6-18.4 67.7-16.8 85-34.9c17.2-18.1 38.7-16 38.7-16s21.4-2.1 38.7 16c17.2 18.1 81.6 9.7 85 34.9s-123.8 18.4-123.8 18.4z" fill="#FF8F1F" p-id="3294"></path><path d="M543.4 606.5c-18.9 0-34.1-0.7-36.3-0.8-2.9 0.1-28 1.4-54.7 0.6-58.7-1.7-67.6-11.3-70.5-14.4-2.7-2.9-3.9-6.5-3.4-10.2 2.4-17.8 25.7-21.8 48.2-25.6 15.6-2.6 31.6-5.4 38.1-12.1 17.5-18.3 38.7-17.8 42.3-17.5 3.6-0.2 24.9-0.8 42.3 17.5 6.4 6.7 22.5 9.5 38.1 12.1 22.5 3.8 45.9 7.8 48.2 25.6 0.5 3.7-0.7 7.2-3.4 10.2-2.9 3.2-11.8 12.7-70.5 14.4-6.3 0.2-12.5 0.2-18.4 0.2z m-38.6-70.2c-5.1 0-20.1 1.2-32.8 14.5-8.7 9.1-25.7 12-43.6 15.1-19 3.2-38.6 6.6-40 17-0.1 0.5-0.1 1.1 0.8 2.1 10.9 11.8 77.9 12.8 117.6 10.6h0.6c39.7 2.1 106.7 1.2 117.6-10.6 0.9-1 0.9-1.6 0.8-2.1-1.4-10.5-21-13.8-40-17-18-3-34.9-5.9-43.6-15.1-15.4-16.1-34.4-14.5-34.6-14.5h-1c-0.1 0.1-0.7 0-1.8 0z" fill="" p-id="3295"></path><path d="M507.1 221.2c68 4.9 75-27 133.1-18.6 29.5 4.3 29.8 41.9-40.8 44.6 0 0 28 1.3 45.2 4 17.2 2.7 8.9 24.2-24.4 11" fill="#FFC41D" p-id="3296"></path><path d="M639.5 271.5c-6.1 0-13.3-1.5-21-4.6l3.7-9.3c15.1 6 23.2 3.9 25.6 1.7 0.5-0.4 0.7-0.8 0.6-0.9-0.1-0.5-1.4-1.7-4.5-2.1-16.7-2.6-44.4-4-44.6-4l0.1-10c36.8-1.4 54.2-12.8 54.7-22.7 0.3-5.7-5.6-10.6-14.4-11.9-27.8-4-42.9 1.4-60.5 7.7-17.5 6.3-37.3 13.4-72.3 10.9l0.7-10c32.9 2.4 50.9-4.1 68.2-10.3 18-6.5 35-12.6 65.3-8.2 14.1 2 23.6 11.2 23 22.3-0.5 9.2-7.7 19-24.8 25.4 2.2 0.3 4.3 0.6 6.2 0.9 6.4 1 11.1 4.4 12.5 9.1 1.2 4-0.1 8.1-3.4 11.2-3.6 3.1-8.8 4.8-15.1 4.8z" fill="" p-id="3297"></path></svg>