<?xml version="1.0" standalone="no"?><!DOCTYPE svg PUBLIC "-//W3C//DTD SVG 1.1//EN" "http://www.w3.org/Graphics/SVG/1.1/DTD/svg11.dtd"><svg t="1664770938582" class="icon" viewBox="0 0 1024 1024" version="1.1" xmlns="http://www.w3.org/2000/svg" p-id="1857" xmlns:xlink="http://www.w3.org/1999/xlink" width="200" height="200"><path d="M288.8 308.9c-8.9-17.5-17.5-36.7-25.6-57-39.1-98.4-49.9-186.6-24.1-196.8s78.5 61.2 117.6 159.6c4.3 10.9 8.3 21.7 12 32.3" fill="#FFFFFF" p-id="1858"></path><path d="M284.4 311.2c-9.1-18.1-17.8-37.4-25.8-57.4-35.2-88.7-54.7-190.1-21.3-203.3 19-7.5 42.9 18 59.7 40.7 22.5 30.5 45.3 73.7 64.4 121.7 4.3 10.8 8.4 21.8 12.1 32.5l-9.5 3.2c-3.6-10.6-7.7-21.4-11.9-32.1-18.8-47.2-41.2-89.7-63.2-119.5-23.7-32.2-40.3-40.4-48-37.4s-14.1 20.4-9.2 60.1c4.5 36.8 17.3 83 36.1 130.2 7.8 19.7 16.4 38.8 25.4 56.6l-8.8 4.7z" fill="" p-id="1859"></path><path d="M626.8 236.8c1-3.8 2.1-7.7 3.2-11.5C659 123.4 704.2 47 731 54.6c26.7 7.6 24.9 96.4-4.2 198.3-4 14.2-8.4 27.9-13 41" fill="#FFFFFF" p-id="1860"></path><path d="M718.6 295.5l-9.4-3.3c4.6-13.2 9-26.8 12.9-40.7 13.9-48.9 22-96.2 22.8-133.2 0.8-40-7.3-56.6-15.2-58.9-7.9-2.3-23.6 7.6-44 42-18.9 31.9-36.9 76.3-50.8 125.2-1.1 3.8-2.2 7.7-3.2 11.4l-9.7-2.6c1-3.8 2.1-7.7 3.2-11.6 14.2-49.7 32.6-95 51.9-127.6 14.4-24.3 35.7-52.1 55.3-46.5 34.6 9.9 25.4 112.7-0.7 204.4-4 14.2-8.4 28.1-13.1 41.4z" fill="" p-id="1861"></path><path d="M508.5 512.5m-300 0a300 300 0 1 0 600 0 300 300 0 1 0-600 0Z" fill="#FFFFFF" p-id="1862"></path><path d="M508.5 817.5c-81.5 0-158.1-31.7-215.7-89.3-57.6-57.6-89.3-134.2-89.3-215.7s31.7-158.1 89.3-215.7c57.6-57.6 134.2-89.3 215.7-89.3s158.1 31.7 215.7 89.3c57.6 57.6 89.3 134.2 89.3 215.7s-31.7 158.1-89.3 215.7c-57.6 57.6-134.2 89.3-215.7 89.3z m0-600c-162.7 0-295 132.3-295 295s132.3 295 295 295 295-132.3 295-295-132.3-295-295-295z" fill="" p-id="1863"></path><path d="M469.8 584.8c-7.1 0-13.7-1.2-18.5-3.6-9.3-4.6-12.1-12.9-7.6-22.2l6.3 3.1c-2.9 5.9-1.5 9.9 4.4 12.8 13.2 6.5 43.5 2.2 51.2-13.5 1.1-2.3 3.4-3.8 6.1-3.9 2.6-0.1 5.1 1 6.2 2.8 8.5 13.8 36.1 17.5 49.6 10 5.8-3.2 7.2-7.6 4.4-13.5l6.3-3.1c4.5 9.2 1.8 17.7-7.3 22.7-15 8.3-46.9 6.1-58.6-11.9h-0.4c-6.8 13.9-25.8 20.3-42.1 20.3z" fill="" p-id="1864"></path><path d="M506.2 541.7l2.9 2.5c0.7 0.6 2.4 0.6 3.1 0l2.9-2.5c0.7-0.6-0.2-1.4-1.6-1.4h-5.8c-1.4 0-2.2 0.8-1.5 1.4z" fill="" p-id="1865"></path><path d="M510.6 548.2c-1.4 0-2.8-0.4-3.9-1.3l-2.9-2.5c-1.3-1.1-1.8-2.9-1.2-4.5 0.7-1.9 2.6-3 5.1-3h5.8c2.4 0 4.4 1.2 5.1 3 0.6 1.6 0.1 3.3-1.2 4.5l-2.9 2.5c-1 0.8-2.4 1.3-3.9 1.3z" fill="" p-id="1866"></path><path d="M259.6 578a57.5 21.3 0 1 0 115 0 57.5 21.3 0 1 0-115 0Z" fill="#FFD4DC" p-id="1867"></path><path d="M648.1 576.6a57.5 21.3 0 1 0 115 0 57.5 21.3 0 1 0-115 0Z" fill="#FFD4DC" p-id="1868"></path><path d="M358.7 511.9m-55 0a55 55 0 1 0 110 0 55 55 0 1 0-110 0Z" fill="" p-id="1869"></path><path d="M358.7 568.4c-31.2 0-56.5-25.3-56.5-56.5s25.3-56.5 56.5-56.5 56.5 25.3 56.5 56.5-25.3 56.5-56.5 56.5z m0-110c-29.5 0-53.5 24-53.5 53.5s24 53.5 53.5 53.5 53.5-24 53.5-53.5-24-53.5-53.5-53.5z" fill="" p-id="1870"></path><path d="M334.9 496.7m-15.2 0a15.2 15.2 0 1 0 30.4 0 15.2 15.2 0 1 0-30.4 0Z" fill="#FFFFFF" p-id="1871"></path><path d="M397.8 529.5c2.4 4.2-1.2 14.8-13.9 22.3-12.7 7.5-26.4 6.4-28.9 2.3-2.4-4.2 9.7-1.6 22.5-9 12.8-7.6 17.9-19.8 20.3-15.6z" fill="#565656" p-id="1872"></path><path d="M660.5 511.9m-55 0a55 55 0 1 0 110 0 55 55 0 1 0-110 0Z" fill="" p-id="1873"></path><path d="M660.5 568.4c-31.2 0-56.5-25.3-56.5-56.5s25.3-56.5 56.5-56.5 56.5 25.3 56.5 56.5-25.4 56.5-56.5 56.5z m0-110c-29.5 0-53.5 24-53.5 53.5s24 53.5 53.5 53.5 53.5-24 53.5-53.5-24-53.5-53.5-53.5z" fill="" p-id="1874"></path><path d="M636.7 496.7m-15.2 0a15.2 15.2 0 1 0 30.4 0 15.2 15.2 0 1 0-30.4 0Z" fill="#FFFFFF" p-id="1875"></path><path d="M699.6 529.5c2.4 4.2-1.2 14.8-13.9 22.3-12.7 7.5-26.4 6.4-28.9 2.3-2.4-4.2 9.7-1.6 22.5-9s17.9-19.8 20.3-15.6z" fill="#565656" p-id="1876"></path></svg>