<?xml version="1.0" standalone="no"?><!DOCTYPE svg PUBLIC "-//W3C//DTD SVG 1.1//EN" "http://www.w3.org/Graphics/SVG/1.1/DTD/svg11.dtd"><svg t="1665152576399" class="icon" viewBox="0 0 1024 1024" version="1.1" xmlns="http://www.w3.org/2000/svg" p-id="3627" xmlns:xlink="http://www.w3.org/1999/xlink" width="200" height="200"><path d="M334.1 287.2s-45.2-115.9-105.8-42.7c-67.1 80.9-22.5 132.3 20.8 151.6" fill="#FFB948" p-id="3628"></path><path d="M247 400.6c-14-6.3-47.6-24.9-56.1-61.7-6.9-29.7 4.4-62.6 33.5-97.7 16.4-19.7 33.5-28.3 50.8-25.5 38.4 6.2 62.6 67 63.6 69.6l-9.3 3.6c-0.2-0.6-23-58.1-55.9-63.4-13.6-2.2-27.5 5.2-41.5 22-27.1 32.6-37.7 62.6-31.5 89 7.5 32.5 37.8 49.2 50.5 54.8l-4.1 9.3z" fill="" p-id="3629"></path><path d="M318.1 310.9s-27.5-70.3-63.4-27.1C215 331.6 241.4 362 267 373.4" fill="#FFD4DC" p-id="3630"></path><path d="M708.8 283.8s46.5-119 107.2-45.8c67.1 80.9 22.5 132.3-20.8 151.6" fill="#FFB948" p-id="3631"></path><path d="M797.2 394.1l-4.1-9.1c12.7-5.7 42.9-22.4 50.5-54.8 6.2-26.5-4.4-56.4-31.5-89-13.7-16.5-27.5-23.8-40.9-21.6-33.7 5.4-57.5 65.4-57.7 66l-9.3-3.6c1.1-2.7 26.2-65.9 65.5-72.3 17.2-2.8 34.1 5.7 50.2 25.1 29.2 35.1 40.4 68 33.5 97.7-8.6 36.8-42.2 55.3-56.2 61.6z" fill="" p-id="3632"></path><path d="M723.8 308.3s27.5-70.3 63.4-27.1c39.7 47.8 13.3 78.2-12.3 89.6" fill="#FFD4DC" p-id="3633"></path><path d="M524.1 520.2m-300 0a300 300 0 1 0 600 0 300 300 0 1 0-600 0Z" fill="#FFB948" p-id="3634"></path><path d="M524.1 825.2c-81.5 0-158.1-31.7-215.7-89.3-57.6-57.6-89.3-134.2-89.3-215.7s31.7-158.1 89.3-215.7c57.6-57.6 134.2-89.3 215.7-89.3s158.1 31.7 215.7 89.3c57.6 57.6 89.3 134.2 89.3 215.7s-31.7 158.1-89.3 215.7c-57.6 57.6-134.2 89.3-215.7 89.3z m0-600c-162.7 0-295 132.3-295 295s132.3 295 295 295 295-132.3 295-295-132.3-295-295-295z" fill="" p-id="3635"></path><path d="M608.6 315.6c0 5-34.3 3-76.6 3s-76.6 2-76.6-3 34.3-14 76.6-14 76.6 9 76.6 14z" fill="" p-id="3636"></path><path d="M582 319.5c-6.1 0-13.1-0.1-20.8-0.2-8.8-0.1-18.8-0.2-29.1-0.2s-20.3 0.1-29.1 0.2c-26.7 0.3-44.4 0.5-47.4-2.5-0.4-0.4-0.5-0.8-0.5-1.2 0-5.6 35.3-14.5 77.1-14.5s77.1 8.9 77.1 14.5c0 0.4-0.2 0.9-0.5 1.2-2.4 2.2-11.9 2.7-26.8 2.7z m-50-1.4c10.3 0 20.3 0.1 29.2 0.2 24.6 0.3 44 0.5 46.7-2.2 0.2-0.2 0.2-0.4 0.2-0.5 0-4-32.2-13.5-76.1-13.5s-76.1 9.4-76.1 13.5c0 0.1 0 0.3 0.2 0.5 2.8 2.7 22.2 2.5 46.7 2.2 8.9-0.1 18.9-0.2 29.2-0.2z" fill="" p-id="3637"></path><path d="M524.1 368.6a7.9 63 0 1 0 15.8 0 7.9 63 0 1 0-15.8 0Z" fill="" p-id="3638"></path><path d="M532 432.1c-5.5 0-8.4-32.7-8.4-63.5s2.9-63.5 8.4-63.5 8.4 32.7 8.4 63.5-2.9 63.5-8.4 63.5z m0-125.9c-3.5 0-7.4 25.7-7.4 62.5s3.9 62.5 7.4 62.5c3.5 0 7.4-25.7 7.4-62.5s-3.9-62.5-7.4-62.5z" fill="" p-id="3639"></path><path d="M582.7 370.1c0 5-22.7 3-50.7 3s-50.7 2-50.7-3 22.7-14 50.7-14 50.7 9 50.7 14z" fill="" p-id="3640"></path><path d="M564.8 373.9c-4 0-8.6-0.1-13.5-0.2-5.8-0.1-12.4-0.2-19.3-0.2s-13.4 0.1-19.3 0.2c-16.5 0.3-28.5 0.5-31.2-2.2-0.4-0.4-0.7-1-0.7-1.5 0-5.6 23.4-14.5 51.2-14.5 27.7 0 51.2 8.9 51.2 14.5 0 0.6-0.2 1.1-0.7 1.5-1.9 2-8.4 2.4-17.7 2.4zM532 356.6c-27.5 0-50.2 8.9-50.2 13.5 0 0.3 0.1 0.6 0.4 0.8 2.4 2.4 14.8 2.2 30.5 1.9 5.8-0.1 12.5-0.2 19.3-0.2s13.4 0.1 19.3 0.2c15.7 0.3 28.1 0.5 30.5-1.9 0.3-0.2 0.4-0.5 0.4-0.8 0-4.6-22.8-13.5-50.2-13.5z" fill="" p-id="3641"></path><path d="M611.3 435.3c0 5-35.5 3-79.3 3s-79.3 2-79.3-3 35.5-14 79.3-14 79.3 9.1 79.3 14z" fill="" p-id="3642"></path><path d="M583.7 439.2c-6.3 0-13.5-0.1-21.6-0.2-9.1-0.1-19.5-0.2-30.2-0.2s-21 0.1-30.2 0.2c-27.7 0.3-46 0.5-49.1-2.5-0.4-0.4-0.5-0.8-0.5-1.2 0-4.3 18.1-8.2 23.6-9.3 9.6-1.9 29.6-5.1 56.2-5.1 43.3 0 79.8 8.9 79.8 14.5 0 0.4-0.2 0.8-0.5 1.2-2.1 2.1-12 2.6-27.5 2.6z m-51.7-1.4c10.7 0 21 0.1 30.2 0.2 25.5 0.3 45.6 0.5 48.4-2.2 0.2-0.2 0.2-0.4 0.2-0.5 0-1.5-6.1-5-22.8-8.4-9.5-1.9-29.5-5.1-56-5.1-45.5 0-78.8 9.4-78.8 13.5 0 0.1 0 0.3 0.2 0.5 2.8 2.8 22.9 2.5 48.4 2.2 9.1-0.1 19.5-0.2 30.2-0.2z" fill="" p-id="3643"></path><path d="M820.7 565.5c-8 3.1-16.5 5-27 6.7-29.9 5-55.7-0.5-56.6-5.9-0.9-5.3 23.7-7.2 53.6-12.2 12-2 23-4.2 31.9-5.8 0 5.5-1.4 11.9-1.9 17.2z" fill="" p-id="3644"></path><path d="M770.5 575.7c-7 0-12.5-0.5-16.1-1-5.3-0.7-17.9-3-18.7-8-0.1-0.9 0.1-1.7 0.6-2.5 2.6-3.5 12.7-5.2 33.6-8.3 6.2-0.9 13.3-2 20.6-3.2 7.3-1.2 14.3-2.5 20.5-3.7 4.1-0.8 7.9-1.5 11.4-2.1l1.8-0.3-0.1 1.8c-0.1 3.2-0.6 6.7-1.1 10.1-0.4 2.5-0.7 4.9-0.9 7.1l-0.1 0.9-0.9 0.3c-8.9 3.5-18.3 5.3-27.3 6.8-8.7 1.6-16.7 2.1-23.3 2.1z m50.6-25.5c-3 0.5-6.2 1.1-9.5 1.8-6.2 1.2-13.3 2.5-20.6 3.7-7.3 1.2-14.4 2.3-20.7 3.2-15.3 2.3-29.7 4.4-31.6 7.1-0.1 0.1-0.1 0.2-0.1 0.2 0.2 1.1 4.5 4 16.2 5.6 6.8 0.9 20.8 2.1 38.7-0.9 8.5-1.4 17.5-3.2 25.8-6.3 0.2-2 0.5-4.2 0.8-6.3 0.4-2.8 0.8-5.5 1-8.1z" fill="" p-id="3645"></path><path d="M823.3 527.8c-6.3 3.2-13.1 5.9-21.2 8.3-26.8 7.9-51.1 5.7-52.5 0.9-1.4-4.8 20.9-9.2 47.8-17.1 9.3-2.7 17.5-6.9 24.8-9.2l0.5 1.4c0.5 5 0.8 8.9 1.1 13.9v0.4l-0.5 1.4z" fill="" p-id="3646"></path><path d="M767.8 542.8h-1.5c-5-0.1-16.8-0.8-18.1-5.4-0.2-0.8-0.1-1.6 0.3-2.4 2-3.6 11.1-6.2 30-11.4 5.6-1.5 12-3.3 18.5-5.2 5-1.5 9.7-3.4 14.2-5.2 3.7-1.5 7.2-2.9 10.6-4l1.4-0.4 1.1 3.1c0.5 4.5 0.8 8.6 1.1 14 0 0.3 0 0.6-0.1 0.9l-0.6 2.1-0.6 0.3c-6.8 3.4-13.6 6.1-21.4 8.4-15.4 4.5-28 5.2-34.9 5.2z m53.4-30.2c-2.8 1-5.8 2.2-9 3.4-4.6 1.9-9.3 3.8-14.5 5.3-6.6 1.9-12.9 3.7-18.6 5.2-12.5 3.4-28 7.7-28.2 10 0.3 0.9 4.5 3 15.3 3.2 6.3 0.1 19.3-0.4 35.4-5.2 7.5-2.2 13.9-4.7 20.4-7.9l0.2-0.7c-0.2-5-0.5-9-1-13.3z" fill="" p-id="3647"></path><path d="M227.2 564.4c8 3.1 16.5 5 27 6.7 29.9 5 55.7-0.5 56.6-5.9 0.9-5.3-23.7-7.2-53.6-12.2-12-2-23-4.2-31.9-5.8 0.1 5.5 1.5 11.9 1.9 17.2z" fill="" p-id="3648"></path><path d="M277.4 574.6c-7.4 0-15.4-0.6-23.5-1.9-8.9-1.5-18.4-3.4-27.3-6.8l-0.9-0.3-0.1-0.9c-0.2-2.2-0.5-4.6-0.9-7.1-0.5-3.4-1-6.9-1.1-10.1l-0.1-1.8 1.8 0.3c3.5 0.6 7.3 1.3 11.4 2.1 6.2 1.2 13.3 2.5 20.5 3.7 7.3 1.2 14.4 2.3 20.6 3.2 20.9 3.1 31 4.7 33.6 8.3 0.5 0.8 0.8 1.6 0.6 2.5-0.6 4.9-15.6 8.8-34.6 8.8z m-48.8-11.3c8.4 3.2 17.3 4.9 25.8 6.3 31.4 5.2 54.3-1.3 54.9-4.6 0 0 0-0.1-0.1-0.2-1.9-2.7-16.4-4.8-31.6-7.1-6.3-0.9-13.4-2-20.7-3.2-7.3-1.2-14.4-2.5-20.6-3.7-3.4-0.6-6.5-1.2-9.5-1.8 0.2 2.5 0.6 5.3 1 7.9 0.3 2.2 0.6 4.4 0.8 6.4z" fill="" p-id="3649"></path><path d="M224.6 526.7c6.3 3.2 13.1 5.9 21.2 8.3 26.8 7.9 51.1 5.7 52.5 0.9 1.4-4.8-20.9-9.2-47.8-17.1-9.3-2.7-17.5-6.9-24.8-9.2l-0.5 1.4c-0.5 5-0.8 8.9-1.1 13.9v0.4l0.5 1.4z" fill="" p-id="3650"></path><path d="M280.2 541.8c-9.8 0-22.3-1.6-34.9-5.3-7.9-2.3-14.7-5-21.4-8.4l-0.6-0.3-0.6-2.1c-0.1-0.3-0.1-0.6-0.1-0.9 0.3-5.4 0.6-9.5 1.1-14l0.1-0.4 1-2.7 1.4 0.4c3.4 1 6.9 2.5 10.6 4 4.5 1.8 9.2 3.7 14.2 5.2 6.5 1.9 12.9 3.7 18.5 5.2 18.8 5.2 28 7.8 30 11.4 0.4 0.8 0.5 1.6 0.3 2.4-1 3.5-8.7 5.5-19.6 5.5z m-54.3-16.1c6.4 3.2 12.9 5.7 20.4 7.9 28.1 8.3 49.8 4.9 50.7 1.9-0.2-2.4-15.7-6.6-28.2-10-5.6-1.5-12-3.3-18.6-5.2-5.2-1.5-9.9-3.4-14.5-5.3-3.1-1.3-6.1-2.5-9-3.4-0.5 5.2-0.8 8.9-1 13.4l0.2 0.7z" fill="" p-id="3651"></path><path d="M475.6 593.1s0.6 8.2 3.1 9.5c2.5 1.3-10.7 2.2-10.5-11.1" fill="#FFFFFF" p-id="3652"></path><path d="M477.8 606.7c-0.5 0-1.1 0-1.7-0.2-5.3-0.9-11.4-5.4-11.3-15.2l7 0.1c0 1.6 0.2 2.9 0.6 4.1-0.1-0.8-0.2-1.5-0.2-2.2l7-0.5c0.2 2.7 0.9 5.9 1.5 6.8 1.8 1.1 2.2 3 1.8 4.4-0.4 0.9-1.4 2.7-4.7 2.7z m-2.2-13.6l3.5-0.3-3.5 0.3z" fill="" p-id="3653"></path><path d="M566.6 593.1s-0.6 8.2-3.1 9.5c-2.5 1.3 10.7 2.2 10.5-11.1" fill="#FFFFFF" p-id="3654"></path><path d="M564.3 606.7c-3.3 0-4.3-1.9-4.6-2.8-0.4-1.4-0.1-3.3 1.8-4.4 0.6-0.9 1.3-4.1 1.5-6.8l7 0.5c-0.1 0.7-0.1 1.5-0.2 2.2 0.4-1.2 0.6-2.5 0.6-4.1l7-0.1c0.1 9.8-6 14.3-11.3 15.2-0.7 0.3-1.2 0.3-1.8 0.3z" fill="" p-id="3655"></path><path d="M524.1 556.9c0 15.5-18.1 36.2-40.4 36.2-22.3 0-40.4-8.9-40.4-28.1 0-21.4 18.1-28.1 40.4-28.1 22.4 0 40.4 4.5 40.4 20z" fill="#FFFFFF" p-id="3656"></path><path d="M483.8 596.6c-27.1 0-43.9-12.1-43.9-31.6 0-14.4 7.6-31.6 43.9-31.6 29.1 0 43.9 7.9 43.9 23.5-0.1 17.9-20.3 39.7-43.9 39.7z m0-56.2c-36.9 0-36.9 18.5-36.9 24.6 0 22.8 28.2 24.6 36.9 24.6 21 0 36.9-19.8 36.9-32.7-0.1-10.9-12.5-16.5-36.9-16.5z" fill="" p-id="3657"></path><path d="M524.1 556.9c0 15.5 18.1 36.2 40.4 36.2 22.3 0 40.4-8.9 40.4-28.1 0-21.4-18.1-28.1-40.4-28.1-22.3 0-40.4 4.5-40.4 20z" fill="#FFFFFF" p-id="3658"></path><path d="M564.5 596.6c-23.6 0-43.9-21.8-43.9-39.7 0-15.6 14.8-23.5 43.9-23.5 36.3 0 43.9 17.2 43.9 31.6 0 19.5-16.8 31.6-43.9 31.6z m0-56.2c-24.5 0-36.9 5.5-36.9 16.5 0 12.8 15.8 32.7 36.9 32.7 8.7 0 36.9-1.8 36.9-24.6 0-6.1 0-24.6-36.9-24.6z" fill="" p-id="3659"></path><path d="M516.7 546.3l4.8 4.2c1.2 1 4 1 5.2 0l4.8-4.2c1.2-1-0.3-2.2-2.6-2.2h-9.7c-2.2-0.1-3.7 1.2-2.5 2.2z" fill="" p-id="3660"></path><path d="M524.1 554.7c-1.8 0-3.7-0.5-4.9-1.6l-4.8-4.2c-1.5-1.3-2-3.2-1.3-4.9 0.8-2.2 3.2-3.5 6.2-3.5h9.7c3 0 5.4 1.3 6.2 3.5 0.6 1.7 0.1 3.6-1.3 4.9l-4.8 4.2c-1.3 1.1-3.1 1.6-5 1.6z m-0.4-7c0.3 0.1 0.7 0.1 1 0l0.2-0.1h-1.3l0.1 0.1z" fill="" p-id="3661"></path><path d="M280.3 586.4a57.5 21.3 0 1 0 115 0 57.5 21.3 0 1 0-115 0Z" fill="#FFD4DC" p-id="3662"></path><path d="M668.7 585a57.5 21.3 0 1 0 115 0 57.5 21.3 0 1 0-115 0Z" fill="#FFD4DC" p-id="3663"></path><path d="M373.1 520.2m-55 0a55 55 0 1 0 110 0 55 55 0 1 0-110 0Z" fill="" p-id="3664"></path><path d="M373.1 576.7c-31.2 0-56.5-25.3-56.5-56.5s25.3-56.5 56.5-56.5 56.5 25.3 56.5 56.5-25.3 56.5-56.5 56.5z m0-110c-29.5 0-53.5 24-53.5 53.5s24 53.5 53.5 53.5 53.5-24 53.5-53.5-24-53.5-53.5-53.5z" fill="" p-id="3665"></path><path d="M349.4 505m-15.2 0a15.2 15.2 0 1 0 30.4 0 15.2 15.2 0 1 0-30.4 0Z" fill="#FFFFFF" p-id="3666"></path><path d="M412.3 537.8c2.4 4.2-1.2 14.8-13.9 22.3-12.7 7.5-26.4 6.4-28.9 2.3s9.7-1.6 22.5-9c12.8-7.6 17.9-19.8 20.3-15.6z" fill="#565656" p-id="3667"></path><path d="M674.9 520.2m-55 0a55 55 0 1 0 110 0 55 55 0 1 0-110 0Z" fill="" p-id="3668"></path><path d="M674.9 576.7c-31.2 0-56.5-25.3-56.5-56.5s25.3-56.5 56.5-56.5 56.5 25.3 56.5 56.5-25.3 56.5-56.5 56.5z m0-110c-29.5 0-53.5 24-53.5 53.5s24 53.5 53.5 53.5 53.5-24 53.5-53.5-24-53.5-53.5-53.5z" fill="" p-id="3669"></path><path d="M651.1 505m-15.2 0a15.2 15.2 0 1 0 30.4 0 15.2 15.2 0 1 0-30.4 0Z" fill="#FFFFFF" p-id="3670"></path><path d="M714.1 537.8c2.4 4.2-1.2 14.8-13.9 22.3-12.7 7.5-26.4 6.4-28.9 2.3s9.7-1.6 22.5-9 17.8-19.8 20.3-15.6z" fill="#565656" p-id="3671"></path></svg>